<?xml version="1.0" encoding="utf-8" ?>
<svg xmlns="http://www.w3.org/2000/svg" xmlns:xlink="http://www.w3.org/1999/xlink" width="32" height="33">
	<defs>
		<clipPath id="clip_0">
			<rect x="-808" y="-1191" width="1441" height="2296" clip-rule="evenodd"/>
		</clipPath>
	</defs>
	<g clip-path="url(#clip_0)">
		<path fill="rgb(42,44,68)" stroke="none" transform="translate(0 1)" d="M30.1176 28.2353L3.76471 28.2353L3.76471 1.88235C3.76471 0.843294 2.92141 0 1.88235 0C0.843294 0 0 0.843294 0 1.88235L0 30.1176C0 31.1567 0.843294 32 1.88235 32L30.1176 32C31.1567 32 32 31.1567 32 30.1176C32 29.0786 31.1567 28.2353 30.1176 28.2353"/>
	</g>
	<defs>
		<clipPath id="clip_1">
			<rect x="0.46369171" y="1" width="25.498308" height="25.535435" clip-rule="evenodd"/>
		</clipPath>
	</defs>
	<g clip-path="url(#clip_1)">
		<path fill="rgb(42,44,68)" stroke="none" transform="translate(0.463692 0.999756)" d="M0.632748 25.3147C0.863457 25.4642 1.12174 25.5357 1.37819 25.5357C1.83133 25.5357 2.27529 25.3101 2.53817 24.8959L10.0523 13.0882L14.4008 16.016C14.7189 16.2305 15.1114 16.3029 15.4827 16.2129C15.855 16.1246 16.173 15.8832 16.3633 15.548L21.4306 6.591L25.2773 8.35714L23.8866 2.03636C23.927 1.71786 23.8526 1.39843 23.6862 1.12729L23.4389 0L22.3801 0.475429C22.0951 0.505143 21.8249 0.626786 21.6052 0.823643L15.1665 3.71429L18.9084 5.43307L14.7023 12.8709L10.4163 9.984C10.1084 9.77693 9.73059 9.70357 9.36936 9.77971C9.00721 9.85586 8.69194 10.0759 8.49157 10.3898L0.219126 23.3907C-0.192657 24.037 -0.00698709 24.8996 0.632748 25.3147"/>
	</g>

</svg>