<?xml version="1.0" encoding="utf-8" ?>
<svg xmlns="http://www.w3.org/2000/svg" xmlns:xlink="http://www.w3.org/1999/xlink" width="37" height="37">
	<path fill="rgb(149,231,213)" fill-opacity="0.90196079" stroke="none" d="M18.5 37C28.7173 37 37 28.7173 37 18.5C37 8.28273 28.7173 0 18.5 0C8.28273 0 0 8.28273 0 18.5C0 23.2679 1.80371 27.6146 4.766 30.8949C8.15164 34.6439 13.0507 37 18.5 37Z"/>
	<path fill="rgb(255,255,255)" stroke="none" transform="translate(11 11)" d="M14.0625 5.15625L9.84375 5.15625L9.84375 0.9375C9.84375 0.42 9.42375 0 8.90625 0L6.09375 0C5.57625 0 5.15625 0.42 5.15625 0.9375L5.15625 5.15625L0.9375 5.15625C0.42 5.15625 0 5.57625 0 6.09375L0 8.90625C0 9.42375 0.42 9.84375 0.9375 9.84375L5.15625 9.84375L5.15625 14.0625C5.15625 14.58 5.57625 15 6.09375 15L8.90625 15C9.42375 15 9.84375 14.58 9.84375 14.0625L9.84375 9.84375L14.0625 9.84375C14.58 9.84375 15 9.42375 15 8.90625L15 6.09375C15 5.57625 14.58 5.15625 14.0625 5.15625"/>

</svg>