<svg xmlns="http://www.w3.org/2000/svg" xmlns:xlink="http://www.w3.org/1999/xlink" width="12" height="12" viewBox="0 0 12 12"><defs><path id="307sa" d="M278.25 1205.125h-3.375v-3.375a.75.75 0 0 0-.75-.75h-2.25a.75.75 0 0 0-.75.75v3.375h-3.375a.75.75 0 0 0-.75.75v2.25c0 .414.336.75.75.75h3.375v3.375c0 .414.336.75.75.75h2.25a.75.75 0 0 0 .75-.75v-3.375h3.375a.75.75 0 0 0 .75-.75v-2.25a.75.75 0 0 0-.75-.75"/></defs><g><g clip-path="url(#clip-A172E079-4414-4259-BB75-454F4BF09B1D)" transform="translate(-267 -1201)"><use fill="#6c6dee" fill-opacity=".9" xlink:href="#307sa"/></g></g></svg>