<svg xmlns="http://www.w3.org/2000/svg" xmlns:xlink="http://www.w3.org/1999/xlink" width="20" height="21" viewBox="0 0 20 21"><defs><path id="s3kfa" d="M1201.003 2199.396c.258-.252.619-.396.997-.396s.74.144.997.396l6.818 6.015c.371.364.47.893.254 1.349-.216.455-.707.75-1.25.75h-3.41v6.867c0 .69-.61 1.248-1.363 1.248h-4.091c-.754 0-1.364-.559-1.364-1.248v-6.866h-3.41c-.543 0-1.034-.296-1.25-.751a1.169 1.169 0 0 1 .254-1.35z"/><path id="s3kfb" d="M1210.667 2213c-.736 0-1.334.523-1.334 1.167v3.5h-14.666v-3.5c0-.644-.598-1.167-1.334-1.167-.736 0-1.333.523-1.333 1.167v4.666c0 .644.597 1.167 1.333 1.167h17.334c.736 0 1.333-.523 1.333-1.167v-4.666c0-.644-.597-1.167-1.333-1.167"/></defs><g><g transform="translate(-1192 -2199)"><use fill="#6c6dee" fill-opacity=".9" xlink:href="#s3kfa"/></g><g transform="translate(-1192 -2199)"><use fill="#6c6dee" fill-opacity=".9" xlink:href="#s3kfb"/></g></g></svg>