<svg xmlns="http://www.w3.org/2000/svg" xmlns:xlink="http://www.w3.org/1999/xlink" width="8" height="16" viewBox="0 0 8 16"><defs><path id="xddoa" d="M1044.959 1101.62c-.811-.886-1.681-1.316-2.587-1.278-1.41.06-2.358 1.251-2.377 1.277l-6.067 6.63c-1.064 1.163-1.064 3.056 0 4.219 1.064 1.163 2.797 1.163 3.86 0l5.775-6.31c.921-1.007 1.053-2.502.293-3.333-.76-.83-2.13-.687-3.05.32l-5.642 6.165a.454.454 0 0 0 0 .602c.152.167.399.167.55 0l5.642-6.164c.619-.675 1.492-.819 1.948-.32.456.498.325 1.453-.293 2.128l-5.774 6.31c-.76.83-1.997.83-2.758 0-.76-.831-.76-2.184 0-3.014l6.088-6.654c.008-.01.763-.958 1.836-1.004.679-.029 1.353.317 2.004 1.028.649.71.966 1.444.941 2.184-.037 1.166-.91 2.005-.94 2.035l-3.387 3.7a.455.455 0 0 0 0 .603.367.367 0 0 0 .551 0l3.364-3.678c.047-.043 1.137-1.08 1.192-2.62.035-.99-.358-1.94-1.17-2.827"/></defs><g><g clip-path="url(#clip-D4730800-C644-B957-C0EA-CA8755289D3B)" transform="translate(-1036 -1099)"><use fill="#6c6dee" fill-opacity=".9" xlink:href="#xddoa"/></g></g></svg>