<svg xmlns="http://www.w3.org/2000/svg" xmlns:xlink="http://www.w3.org/1999/xlink" width="31" height="38" viewBox="0 0 31 38"><defs><path id="axyec" d="M297.847 1316.533c.64-.1 1.608-.295 2.642-.654a.674.674 0 0 0 .422-.797 1.656 1.656 0 0 1-.042-.369v-1.745c0-.127.015-.25.042-.37a.673.673 0 0 0-.422-.796 15.548 15.548 0 0 0-2.642-.654.672.672 0 0 0-.777.663v4.058c0 .414.369.728.777.664"/><path id="axyed" d="M306.043 1314.709c0 .132-.016.26-.045.383a.657.657 0 0 0 .412.778c1.057.369 2.047.565 2.69.664.39.06.743-.244.743-.64v-4.116c0-.396-.353-.7-.744-.64-.642.1-1.632.296-2.689.664a.657.657 0 0 0-.412.779c.03.123.045.25.045.382z"/><path id="axyee" d="M305.019 1314.511v-1.344a.877.877 0 0 0-.877-.877h-1.375a.877.877 0 0 0-.877.877v1.344c0 .484.393.876.876.876h1.377a.877.877 0 0 0 .876-.876"/><path id="axyea" d="M301.27 1281h3.932v7.136h-3.932z"/><path id="axyeg" d="M305.178 1284.167a.193.193 0 0 0 .022-.118c-.195-1.691-.906-2.967-1.829-3.045-.793-.067-1.579.766-2.088 2.038a.204.204 0 0 0-.002.14 202.785 202.785 0 0 1 1.54 4.814.2.2 0 0 0 .37.03 239.991 239.991 0 0 1 1.987-3.86"/><path id="axyeh" d="M302.108 1289.584a.53.53 0 0 0 .442-.29l.017-.033c-.374-1.222-1.927-6.276-2.325-7.113-.286-.602-.992-.905-1.475-1.047a.517.517 0 0 0-.64.344c-1.093 3.602-.058 8.35 3.981 8.14"/><path id="axyei" d="M308.972 1282.98a1.026 1.026 0 0 0-1.36-.912c-.345.119-.684.312-.904.625-.435.62-2.099 3.88-3.007 5.679a1.022 1.022 0 0 0 .926 1.48c2.88-.016 4.557-3.434 4.345-6.871"/><path id="axyej" d="M294.31 1288.712c-.184-.923-.433-2.195-.616-3.224a.205.205 0 0 0-.056-.108c-.935-.942-1.985-1.38-2.591-.984-.52.34-.603 1.226-.307 2.25a.199.199 0 0 0 .084.113c.924.604 2.257 1.52 3.175 2.157a.2.2 0 0 0 .31-.204"/><path id="axyeb" d="M288 1286.49h6.559v4.586H288z"/><path id="axyel" d="M294.416 1290.299a.415.415 0 0 0 .13-.423c-.823-.574-4.224-2.942-4.875-3.266-.467-.233-1.049-.08-1.415.067a.409.409 0 0 0-.229.526c1.083 2.797 4.03 5.147 6.39 3.096"/><path id="axyem" d="M295.613 1283.095c-.468-.562-1.372-.414-1.619.275a1.173 1.173 0 0 0-.073.46c.03.562.524 3.124.838 4.708.148.743 1.072 1.023 1.6.48 1.391-1.426.835-4.022-.746-5.923"/><path id="axyen" d="M315.394 1287.24a.205.205 0 0 0 .08-.09c.54-1.212.572-2.35-.017-2.771-.503-.362-1.361-.121-2.21.525a.204.204 0 0 0-.075.118 144.729 144.729 0 0 1-.866 3.74.201.201 0 0 0 .303.217c.795-.505 1.89-1.195 2.785-1.738"/><path id="axyeo" d="M311.172 1289.658c.02.01.043.02.064.027l.419-.237c.28-.983 1.23-5.394 1.245-5.546.03-.34-.11-.666-.286-.932a.744.744 0 0 0-1.153-.103c-1.921 1.974-3.03 5.348-.29 6.79"/><path id="axyep" d="M317.033 1286.858c-.552.247-3.053 1.822-4.37 2.66a.739.739 0 0 0-.009 1.242c.455.298 1.001.507 1.543.468 2.301-.165 3.683-2.23 4.268-3.35a.737.737 0 0 0-.462-1.052c-.308-.08-.66-.107-.97.032"/><path id="axyeq" d="M304.901 1294.405c-1.244 1.64-1.018 3.98-.919 4.66a.201.201 0 0 0 .225.17c.68-.088 2.995-.502 4.238-2.142 1.244-1.64 1.018-3.98.92-4.66a.203.203 0 0 0-.226-.171c-.68.089-2.995.504-4.238 2.143"/><path id="axyer" d="M311.063 1293.171l.542-1.58a.198.198 0 0 1 .21-.133c.137.015.269.015.396 0a.202.202 0 0 0 .09-.366 4.53 4.53 0 0 1-.278-.214.213.213 0 0 0-.135-.046c-.69.005-1.2-.378-1.4-1.04l-.053-.035-.088-.066c-.147-.112-.352.02-.317.2.085.426.368.863.81 1.18.013.01.026.017.037.024l-2.75 8.016a.204.204 0 0 1-.16.134c-1.504.238-3.028.36-4.668.356a.202.202 0 0 1-.2-.21l.32-7.92a.2.2 0 0 1 .15-.187c.393-.094.735-.273.989-.51.127-.12.042-.335-.133-.343a5.26 5.26 0 0 1-.6-.065.211.211 0 0 0-.144.03c-1.28.801-1.892-.183-2.31-.22a5.712 5.712 0 0 1-.27-.03c-.173-.025-.295.174-.19.315.315.42.852.738 1.496.853a.198.198 0 0 1 .162.204l-.132 3.228c-.008.201-.27.265-.374.092-.927-1.541-2.755-2.397-4.523-2.58a.203.203 0 0 0-.22.167c-.61 3.428.994 6.07 4.763 6.748.099.018.17.105.167.206a.202.202 0 0 1-.21.193 29.315 29.315 0 0 1-3.108-.293.198.198 0 0 1-.157-.125l-3.14-7.858a.197.197 0 0 1 .065-.234c.394-.287.684-.676.783-1.088.043-.18-.157-.314-.311-.212a4.048 4.048 0 0 1-.303.185.207.207 0 0 0-.093.109c-.24.634-.758.96-1.408.936a.197.197 0 0 0-.12.033c-.03.017-.057.035-.086.053a.201.201 0 0 0 .073.37c.129.021.265.026.404.015a.198.198 0 0 1 .198.126l.614 1.533a.202.202 0 0 1-.232.27c-1.557-.319-3.134.135-3.653.31a.199.199 0 0 0-.128.243c.793 2.777 2.774 4.56 5.873 4.231a.202.202 0 0 1 .209.125l.18.452a.202.202 0 0 1-.226.272 21.724 21.724 0 0 1-3.66-1.078.2.2 0 0 0-.256.27l5.443 12.025a.21.21 0 0 0 .14.113c1.445.328 2.338.72 2.896.963.036.016.075.02.114.012.474-.099 2.095-.112 2.606 0 .04.008.08.003.118-.013a14.78 14.78 0 0 1 2.652-.906.207.207 0 0 0 .138-.112l5.468-12.083a.2.2 0 0 0-.256-.269 21.67 21.67 0 0 1-3.488 1.038.2.2 0 0 1-.23-.262l.136-.399a.203.203 0 0 1 .209-.134c3.057.272 4.98-1.56 5.749-4.245a.198.198 0 0 0-.128-.242c-.538-.18-2.21-.662-3.822-.272a.2.2 0 0 1-.24-.26"/><path id="axyes" d="M304.756 1316.344c-.51.111-2.13.1-2.607 0a.196.196 0 0 0-.117.012c-.15.063-.554.232-.817.337a.2.2 0 0 0-.114.254c.4 1.156 1.301 1.964 2.351 1.964 1.052 0 1.953-.808 2.352-1.964a.202.202 0 0 0-.114-.254 63.76 63.76 0 0 1-.817-.337.196.196 0 0 0-.117-.012"/><path id="axyet" d="M304.142 1312.29h-1.375a.877.877 0 0 0-.877.877v1.344c0 .484.393.876.876.876h1.377a.877.877 0 0 0 .876-.876v-1.344a.877.877 0 0 0-.877-.877"/><clipPath id="axyef"><use xlink:href="#axyea"/></clipPath><clipPath id="axyek"><use xlink:href="#axyeb"/></clipPath></defs><g><g transform="translate(-288 -1281)"><g><use fill="#161733" xlink:href="#axyec"/></g><g><use fill="#161733" xlink:href="#axyed"/></g><g><use fill="#161733" xlink:href="#axyee"/></g><g><g/><g clip-path="url(#axyef)"><use fill="#161733" xlink:href="#axyeg"/></g></g><g><use fill="#161733" xlink:href="#axyeh"/></g><g><use fill="#161733" xlink:href="#axyei"/></g><g><use fill="#161733" xlink:href="#axyej"/></g><g><g/><g clip-path="url(#axyek)"><use fill="#161733" xlink:href="#axyel"/></g></g><g><use fill="#161733" xlink:href="#axyem"/></g><g><use fill="#161733" xlink:href="#axyen"/></g><g><use fill="#161733" xlink:href="#axyeo"/></g><g><use fill="#161733" xlink:href="#axyep"/></g><g><use fill="#161733" xlink:href="#axyeq"/></g><g><use fill="#161733" xlink:href="#axyer"/></g><g><use fill="#161733" xlink:href="#axyes"/></g><g><use fill="#161733" xlink:href="#axyet"/></g></g></g></svg>