<?xml version="1.0" encoding="utf-8" ?>
<svg xmlns="http://www.w3.org/2000/svg" xmlns:xlink="http://www.w3.org/1999/xlink" width="11" height="20">
	<defs>
		<clipPath id="clip_0">
			<rect x="1.079834" y="0.59997559" width="10.559999" height="19.199999" clip-rule="evenodd"/>
		</clipPath>
	</defs>
	<g clip-path="url(#clip_0)">
		<path fill="rgb(149,231,213)" fill-opacity="0.90196079" stroke="none" transform="matrix(0.96 0 0 0.96 1.07983 0.599976)" d="M2.09833 19.6639L10.6039 10.9138C10.8565 10.6775 11 10.3469 11 10C11 9.65312 10.8565 9.32249 10.6039 9.08624L2.09833 0.336111C1.7353 -0.00389438 1.2051 -0.0945207 0.750383 0.103607C0.294415 0.301735 0 0.751742 0 1.24987L0 4.37492L0 15.6251L0 18.7501C0 19.2483 0.294415 19.6983 0.750383 19.8964C1.2051 20.0945 2.09833 19.6639 2.09833 19.6639"/>
	</g>

</svg>