<svg xmlns="http://www.w3.org/2000/svg" xmlns:xlink="http://www.w3.org/1999/xlink" width="40" height="36" viewBox="0 0 40 36"><defs><path id="ebs5a" d="M862 1133h40v28h-40z"/><path id="ebs5c" d="M899 1133h-34a3 3 0 0 0-3 3v22a3 3 0 0 0 3 3h34a3 3 0 0 0 3-3v-22a3 3 0 0 0-3-3m-17 23.5a9.5 9.5 0 1 1 0-19 9.5 9.5 0 0 1 0 19"/><path id="ebs5d" d="M886.723 1125h-9.44c-.765 0-1.443.489-1.685 1.214l-.816 2.449a1.775 1.775 0 0 0 1.684 2.337h11.073a1.776 1.776 0 0 0 1.685-2.337l-.816-2.449a1.777 1.777 0 0 0-1.685-1.214"/><path id="ebs5e" d="M869.624 1128h-3.247c-.76 0-1.377.616-1.377 1.377v.246c0 .761.617 1.377 1.377 1.377h3.247c.76 0 1.376-.616 1.376-1.377v-.246c0-.761-.616-1.377-1.376-1.377"/><path id="ebs5f" d="M882 1140a7 7 0 1 0 .001 14.001A7 7 0 0 0 882 1140"/><clipPath id="ebs5b"><use xlink:href="#ebs5a"/></clipPath></defs><g><g transform="translate(-862 -1125)"><g><g/><g clip-path="url(#ebs5b)"><use fill="#161733" xlink:href="#ebs5c"/></g></g><g><use fill="#161733" xlink:href="#ebs5d"/></g><g><use fill="#161733" xlink:href="#ebs5e"/></g><g><use fill="#161733" xlink:href="#ebs5f"/></g></g></g></svg>