<?xml version="1.0" encoding="utf-8" ?>
<svg xmlns="http://www.w3.org/2000/svg" xmlns:xlink="http://www.w3.org/1999/xlink" width="36" height="36">
	<path fill="rgb(108,109,238)" fill-opacity="0.50196081" stroke="none" d="M18 36C27.9411 36 36 27.9411 36 18C36 8.05887 27.9411 0 18 0C8.05887 0 0 8.05887 0 18C0 27.9411 8.05887 36 18 36Z"/>
	<defs>
		<clipPath id="clip_0">
			<rect x="10" y="11" width="17" height="14" clip-rule="evenodd"/>
		</clipPath>
	</defs>
	<g clip-path="url(#clip_0)">
		<path fill="rgb(255,255,255)" stroke="none" transform="translate(10 11)" d="M8.32457 13.9281C8.51729 14.0583 8.80234 14.006 8.93834 13.8174L16.9143 2.66122C16.9851 2.56218 17.0127 2.44151 16.9946 2.32134C16.975 2.20068 16.9123 2.09409 16.8119 2.02018L14.1903 0.0869812C14.1155 0.0301669 14.0211 0 13.9268 0C13.7381 0.0246363 13.6317 0.0925118 13.5614 0.189046L7.93162 8.06764C7.7901 8.26674 7.51709 8.31601 7.31836 8.17774L2.50456 4.90413C2.43029 4.85385 2.34347 4.82721 2.25514 4.82721C2.10358 4.82721 1.96407 4.90313 1.87975 5.02933L0.0755853 7.76546C0.010846 7.86602 -0.0152504 7.9887 0.00883861 8.11088C0.0324258 8.22702 0.100678 8.33461 0.199543 8.40048L8.32457 13.9281Z"/>
	</g>

</svg>