<svg xmlns="http://www.w3.org/2000/svg" xmlns:xlink="http://www.w3.org/1999/xlink" width="9" height="9" viewBox="0 0 9 9"><defs><path id="ixr6a" d="M759.546 904.351l1.975-1.975a.62.62 0 0 0 0-.877l-1.317-1.317a.62.62 0 0 0-.878 0l-1.975 1.975-1.975-1.975a.62.62 0 0 0-.878 0l-1.316 1.317a.62.62 0 0 0 0 .877l1.975 1.975-1.975 1.975a.621.621 0 0 0 0 .878l1.316 1.317a.62.62 0 0 0 .878 0l1.975-1.975 1.975 1.975a.62.62 0 0 0 .878 0l1.317-1.317a.62.62 0 0 0 0-.878z"/></defs><g><g clip-path="url(#clip-F0F04AA2-C55D-4F52-A547-C6E22C9ECB81)" transform="translate(-753 -900)"><use fill="#6c6dee" fill-opacity=".9" xlink:href="#ixr6a"/></g></g></svg>