<?xml version="1.0" encoding="utf-8"?>
<!-- Generator: Adobe Illustrator 22.1.0, SVG Export Plug-In . SVG Version: 6.00 Build 0)  -->
<svg version="1.1" id="Layer_1" xmlns="http://www.w3.org/2000/svg" xmlns:xlink="http://www.w3.org/1999/xlink" x="0px" y="0px"
	 viewBox="0 0 686 598" style="enable-background:new 0 0 686 598;" xml:space="preserve">
<style type="text/css">
	.st0{fill:#D8D8D8;fill-opacity:0.4;}
	.st1{fill:#E3E3E3;}
</style>
<path class="st0" d="M0,0h686v598H0V0z"/>
<g>
	<path class="st1" d="M275.6,255.1v87.7c0,4.7,3.8,8.6,8.6,8.6h117.7c4.7,0,8.6-3.8,8.6-8.6v-87.7c0-4.7-3.8-8.6-8.6-8.6H284.1
		C279.4,246.6,275.6,250.4,275.6,255.1z M401.9,255.1v60.5l-31.5-36.6c-2.6-3-7.2-3-9.8,0.1l-33.7,40.2l-17.1-17.1
		c-2.4-2.4-6.3-2.5-8.9-0.2l-16.9,15.3v-62.3H401.9z M308.8,289.4c-6.5,0-11.8-5.3-11.8-11.8c0-6.5,5.3-11.8,11.8-11.8
		c6.5,0,11.8,5.3,11.8,11.8C320.5,284.1,315.3,289.4,308.8,289.4z"/>
</g>
</svg>
