<svg xmlns="http://www.w3.org/2000/svg" xmlns:xlink="http://www.w3.org/1999/xlink" width="10" height="12" viewBox="0 0 10 12"><defs><path id="q0iia" d="M1174 857h8v7.304c0 .384-.276.696-.615.696h-6.77c-.34 0-.615-.312-.615-.696zm4.923 6.609h.615v-5.913h-.615zm-1.23 0h.615v-5.913h-.616zm-1.231 0h.615v-5.913h-.615zm-1.231 0h.615v-5.913h-.615z"/><path id="q0iib" d="M1182.333 854.8h-2.666v-.6c0-.662-.599-1.2-1.334-1.2h-.666c-.735 0-1.334.538-1.334 1.2v.6h-2.666c-.368 0-.667.269-.667.6 0 .331.299.6.667.6h8.666c.368 0 .667-.269.667-.6 0-.331-.299-.6-.667-.6zm-5 0h1.344v-.9h-1.344z"/></defs><g><g transform="translate(-1173 -853)"><use fill="#6c6dee" fill-opacity=".9" xlink:href="#q0iia"/></g><g transform="translate(-1173 -853)"><use fill="#6c6dee" fill-opacity=".9" xlink:href="#q0iib"/></g></g></svg>