<svg xmlns="http://www.w3.org/2000/svg" xmlns:xlink="http://www.w3.org/1999/xlink" width="40" height="41" viewBox="0 0 40 41"><defs><path id="7o2lc" d="M607.352 1305.739a3.824 3.824 0 0 1-2.846-1.235 3.504 3.504 0 0 1-.762-1.273.717.717 0 0 1 .844-.927l.344.082a.691.691 0 0 1 .483.4c.071.174.204.4.43.622.35.344.965.72 1.903.575.75-.118 1.377-.74 1.531-1.515.205-1.033-.443-2.089-1.775-2.898-3.682-2.238-8.318.886-11.37 4.442a.714.714 0 0 1-.992.1l-.233-.189a.711.711 0 0 1-.103-1.013c3.504-4.085 8.976-7.62 13.595-4.814 1.958 1.19 2.918 2.95 2.57 4.708-.296 1.494-1.484 2.653-2.957 2.883a4.383 4.383 0 0 1-.662.052"/><path id="7o2ld" d="M588.752 1296.549l-.53-.278a.561.561 0 0 1-.241-.747c1.468-3.01 2.422-6.958 1.504-9.093-.32-.743-.844-1.208-1.604-1.422-1.016-.286-1.91-.193-2.514.264-.452.342-.702.873-.702 1.494 0 .809.647 1.139.845 1.22.253.106.57.15.834.07.213-.065.441-.033.598.124l.456.456a.57.57 0 0 1-.164.915c-.697.347-1.567.369-2.385.03-1.177-.488-1.909-1.567-1.909-2.815 0-1.157.505-2.203 1.385-2.87 1.045-.791 2.475-.986 4.025-.548 1.256.354 2.196 1.183 2.719 2.4 1.185 2.75.106 7.183-1.549 10.557a.564.564 0 0 1-.768.243"/><path id="7o2le" d="M596.648 1292.085l-.178-.32a8.55 8.55 0 0 0 3.298-11.632l.318-.177c.33-.184.761-.063.921.28 2.011 4.298.559 9.454-3.393 12.072a.674.674 0 0 1-.966-.223"/><path id="7o2la" d="M573 1291.26h28.75v28.73H573z"/><path id="7o2lg" d="M600.688 1303.871c-1.075-2.033-2.867-4.35-5.044-6.528-4.231-4.23-9.555-7.468-11.586-5.486l-.002-.003c-.004.004-.005.008-.008.012l-.01.007-.592.591c-1.501 1.5-8.771 20.181-10.222 23.93-.422 1.04-.236 2.206.464 2.905.45.452 1.097.69 1.775.69.374 0 .758-.073 1.124-.223 3.734-1.444 22.434-8.724 23.936-10.225l.61-.609c.667-.667 1.13-2.086-.445-5.06m-14.95-10.935c1.312 0 4.786 1.726 8.687 5.626 2.058 2.06 3.742 4.23 4.739 6.115.95 1.793.973 2.782.739 3.04-.24.22-1.227.195-3.022-.756-1.886-.998-4.057-2.68-6.116-4.739-4.54-4.54-6.134-8.504-5.49-9.149.092-.09.248-.137.463-.137"/><path id="7o2lh" d="M595.02 1279a3.454 3.454 0 0 0-3.45 3.45 3.454 3.454 0 0 0 3.45 3.45 3.454 3.454 0 0 0 3.45-3.45 3.454 3.454 0 0 0-3.45-3.45"/><path id="7o2lb" d="M602.01 1285.26h10.946v10.845H602.01z"/><path id="7o2lj" d="M612.766 1292.027l-1.717-2.14.748-2.577a.86.86 0 0 0-1.094-1.06l-2.553.83-2.194-1.647a.86.86 0 0 0-1.379.663l-.092 2.942-2.128 1.586a.863.863 0 0 0 .197 1.494l2.56 1.015 1.143 2.471a.864.864 0 0 0 .782.501.862.862 0 0 0 .71-.374l1.452-2.106 2.95-.198a.863.863 0 0 0 .615-1.4"/><clipPath id="7o2lf"><use xlink:href="#7o2la"/></clipPath><clipPath id="7o2li"><use xlink:href="#7o2lb"/></clipPath></defs><g><g transform="translate(-573 -1279)"><g><use fill="#161733" xlink:href="#7o2lc"/></g><g><use fill="#161733" xlink:href="#7o2ld"/></g><g><use fill="#161733" xlink:href="#7o2le"/></g><g><g/><g clip-path="url(#7o2lf)"><use fill="#161733" xlink:href="#7o2lg"/></g></g><g><use fill="#161733" xlink:href="#7o2lh"/></g><g><g/><g clip-path="url(#7o2li)"><use fill="#161733" xlink:href="#7o2lj"/></g></g></g></g></svg>