<?xml version="1.0" encoding="utf-8" ?>
<svg xmlns="http://www.w3.org/2000/svg" xmlns:xlink="http://www.w3.org/1999/xlink" width="31" height="25">
	<path fill="rgb(64,148,130)" fill-opacity="0.90196079" stroke="none" transform="translate(18 1)" d="M12.9303 0L0 12.5141L12.8663 23C12.9501 22.7941 13 22.5708 13 22.3348L13 0.466524C13 0.304334 12.9718 0.150345 12.9303 0"/>
	<path fill="rgb(64,148,130)" fill-opacity="0.90196079" stroke="none" transform="translate(1 0)" d="M29 0.0669239C28.856 0.0280357 28.7067 0 28.5504 0L0.448748 0C0.293311 0 0.144021 0.0280357 0 0.0669239L14.4996 15L29 0.0669239Z"/>
	<path fill="rgb(64,148,130)" fill-opacity="0.90196079" stroke="none" transform="translate(0 1)" d="M0.0696698 0C0.029186 0.150345 0 0.304334 0 0.466524L0 22.3348C0 22.5708 0.0498986 22.7941 0.133691 23L13 12.5141L0.0696698 0Z"/>
	<path fill="rgb(64,148,130)" fill-opacity="0.90196079" stroke="none" transform="translate(1 15)" d="M15.1316 1.8181C14.9574 1.98979 14.7287 2.07607 14.5 2.07607C14.2713 2.07607 14.0426 1.98979 13.8684 1.8181L12.0238 0L0 9.97975C0.0687839 9.98679 0.135781 10 0.207245 10L28.7928 10C28.8633 10 28.9312 9.98679 29 9.97975L16.9762 0L15.1316 1.8181Z"/>

</svg>