<?xml version="1.0" encoding="utf-8" ?>
<svg xmlns="http://www.w3.org/2000/svg" xmlns:xlink="http://www.w3.org/1999/xlink" width="36" height="28">
	<path fill="rgb(255,255,255)" stroke="none" transform="translate(22.1914 1.48828)" d="M13.734 0L0 13.734L13.666 25.242C13.755 25.016 13.808 24.771 13.808 24.512L13.808 0.512C13.808 0.334 13.778 0.165 13.734 0"/>
	<path fill="rgb(255,255,255)" stroke="none" transform="translate(1.48828 0.000244141)" d="M33.023 0.074C32.859 0.031 32.689 0 32.511 0L0.511 0C0.334 0 0.164 0.031 0 0.074L16.511 16.586L33.023 0.074Z"/>
	<path fill="rgb(255,255,255)" stroke="none" transform="translate(0 1.48828)" d="M0.074 0C0.031 0.165 0 0.334 0 0.512L0 24.512C0 24.771 0.053 25.016 0.142 25.242L13.808 13.734L0.074 0Z"/>
	<path fill="rgb(255,255,255)" stroke="none" transform="translate(1.76758 16.642)" d="M16.939 2.065C16.744 2.26 16.488 2.358 16.232 2.358C15.976 2.358 15.72 2.26 15.525 2.065L13.46 0L0 11.335C0.077 11.343 0.152 11.358 0.232 11.358L32.232 11.358C32.311 11.358 32.387 11.343 32.464 11.335L19.004 0L16.939 2.065Z"/>

</svg>