<?xml version="1.0" encoding="utf-8" ?>
<svg xmlns="http://www.w3.org/2000/svg" xmlns:xlink="http://www.w3.org/1999/xlink" width="36" height="32">
	<defs>
		<clipPath id="clip_0">
			<rect x="-810" y="-937" width="1441" height="2296" clip-rule="evenodd"/>
		</clipPath>
	</defs>
	<g clip-path="url(#clip_0)">
		<path fill="rgb(22,23,51)" fill-opacity="0.90196079" stroke="none" d="M2.11765 0L33.8824 0C35.0513 0 36 0.955733 36 2.13333L36 23.4667C36 24.6443 35.0513 25.6 33.8824 25.6L13.7647 25.6L5.29412 32L5.29412 25.6L2.11765 25.6C0.948706 25.6 0 24.6443 0 23.4667L0 2.13333C0 0.955733 0.948706 0 2.11765 0ZM5 8L32 8L32 6L5 6L5 8ZM4 12L24 12L24 10L4 10L4 12ZM5 16L32 16L32 14L5 14L5 16ZM24 20L4 20L4 18L24 18L24 20Z" fill-rule="evenodd"/>
	</g>

</svg>