<svg xmlns="http://www.w3.org/2000/svg" xmlns:xlink="http://www.w3.org/1999/xlink" width="58" height="34" viewBox="0 0 58 34"><defs><path id="wjw8a" d="M610.15 1127h10.313v31.198H610.15z"/><path id="wjw8e" d="M615.306 1127c-2.847 0-5.156 3.151-5.156 7.04 0 3.279 1.642 6.035 3.867 6.816v16.051a1.29 1.29 0 1 0 2.58 0v-16.051c2.224-.781 3.866-3.537 3.866-6.816 0-3.889-2.308-7.04-5.157-7.04"/><path id="wjw8b" d="M563 1127.21h9.445v30.988H563z"/><path id="wjw8g" d="M571.584 1127.21a.858.858 0 0 0-.86.859v6.622a.57.57 0 0 1-.57.571h-.999a.57.57 0 0 1-.57-.571v-6.622a.86.86 0 1 0-1.72 0v6.622a.57.57 0 0 1-.57.571h-1.004a.571.571 0 0 1-.57-.571v-6.622a.86.86 0 0 0-1.721 0l.003 7.217c.016 3.189 1.463 5.074 3.433 5.621v16a1.29 1.29 0 1 0 2.58 0v-16c1.98-.55 3.43-2.426 3.43-5.645l-.002-7.193a.858.858 0 0 0-.86-.859"/><path id="wjw8c" d="M574.48 1127.61h33.33v33.33h-33.33z"/><path id="wjw8i" d="M591.145 1127.61c-9.203 0-16.665 7.461-16.665 16.666 0 9.203 7.462 16.664 16.665 16.664s16.665-7.461 16.665-16.664c0-9.205-7.462-16.666-16.665-16.666"/><clipPath id="wjw8d"><use xlink:href="#wjw8a"/></clipPath><clipPath id="wjw8f"><use xlink:href="#wjw8b"/></clipPath><clipPath id="wjw8h"><use xlink:href="#wjw8c"/></clipPath></defs><g><g transform="translate(-563 -1127)"><g><g/><g clip-path="url(#wjw8d)"><use fill="#161733" xlink:href="#wjw8e"/></g></g><g><g/><g clip-path="url(#wjw8f)"><use fill="#161733" xlink:href="#wjw8g"/></g></g><g><g/><g clip-path="url(#wjw8h)"><use fill="#161733" xlink:href="#wjw8i"/></g></g></g></g></svg>