<svg xmlns="http://www.w3.org/2000/svg" xmlns:xlink="http://www.w3.org/1999/xlink" width="26" height="40" viewBox="0 0 26 40"><defs><path id="c020a" d="M1157.06 1279.24h21.5v6.65h-21.5z"/><path id="c020d" d="M1158.036 1285.886c.08-.005.159-.018.234-.039l17.145-4.634c.573-.155 1.17.135 1.207.587l.078.983c.031.384.472.668.986.634.512-.034.904-.374.873-.758l-.222-2.783c-.018-.216-.168-.41-.408-.527a1.197 1.197 0 0 0-.816-.067l-19.423 5.27c-1.02.276-.728 1.406.346 1.334"/><path id="c020b" d="M1157 1285.17h25.896v33.826H1157z"/><path id="c020f" d="M1181.411 1285.17c.82 0 1.485.675 1.485 1.508v30.81c0 .833-.665 1.508-1.485 1.508h-22.926c-.82 0-1.485-.675-1.485-1.508v-30.81c0-.833.665-1.508 1.486-1.508h22.925m-14.304 10.786c-2.145 0-3.27 1.601-3.27 4.134 0 2.671 4.981 6.268 6.113 6.268 1.131 0 6.114-3.597 6.11-6.268-.002-2.533-1.123-4.134-3.268-4.134-1.383 0-2.337.776-2.842 1.938-.506-1.162-1.46-1.938-2.843-1.938m11.16 17.102a.74.74 0 0 0 .734-.745.74.74 0 0 0-.733-.744h-16.648a.741.741 0 0 0-.734.744c0 .41.33.745.734.745h16.648"/><clipPath id="c020c"><use xlink:href="#c020a"/></clipPath><clipPath id="c020e"><use xlink:href="#c020b"/></clipPath></defs><g><g transform="translate(-1157 -1279)"><g><g/><g clip-path="url(#c020c)"><use fill="#161733" xlink:href="#c020d"/></g></g><g><g/><g clip-path="url(#c020e)"><use fill="#161733" xlink:href="#c020f"/></g></g></g></g></svg>