<?xml version="1.0" encoding="utf-8" ?>
<svg xmlns="http://www.w3.org/2000/svg" xmlns:xlink="http://www.w3.org/1999/xlink" width="27" height="27">
	<path fill="rgb(22,23,51)" fill-opacity="0.90196079" stroke="none" d="M23.2676 8.26763C22.2918 9.24412 20.7082 9.24412 19.7324 8.26763C18.7559 7.29113 18.7559 5.70744 19.7324 4.73237C20.7082 3.75588 22.2918 3.75588 23.2676 4.73237C24.2441 5.70744 24.2441 7.29113 23.2676 8.26763M12.7696 2.44182C12.3793 2.83136 0.443912 14.7669 0.443912 14.7669C-0.147971 15.3587 -0.147971 16.3182 0.443912 16.9108L10.0899 26.5561C10.6817 27.148 11.6419 27.148 12.2338 26.5561C12.2338 26.5561 24.1692 14.6206 24.5588 14.231C27.8137 10.9753 27.8137 5.69757 24.5588 2.44182C21.303 -0.813939 16.0254 -0.813939 12.7696 2.44182"/>

</svg>