<?xml version="1.0" encoding="utf-8" ?>
<svg xmlns="http://www.w3.org/2000/svg" xmlns:xlink="http://www.w3.org/1999/xlink" width="160" height="69">
	<defs>
		<clipPath id="clip_0">
			<rect x="-657.16992" y="-453.3197" width="1429.0397" height="2179.7566" clip-rule="evenodd"/>
		</clipPath>
	</defs>
	<g clip-path="url(#clip_0)">
		<path fill="rgb(35,35,35)" stroke="none" transform="matrix(0.9917 0 0 0.9917 1.31836 16.288)" d="M0 3.38354e-15L4.28571 3.38354e-15L8.57143 16.1905L8.63333 16.1905L13.4857 0L17.5333 0L22.2952 16.1905L22.3571 16.1905L26.7143 0L30.881 0L24.4286 22.0333L20.619 22.0333L15.4667 5.50952L15.4048 5.50952L10.2381 22.0333L6.42857 22.0333L0 3.38354e-15Z"/>
	</g>
	<defs>
		<clipPath id="clip_1">
			<rect x="-657.16992" y="-453.3197" width="1429.0397" height="2179.7566" clip-rule="evenodd"/>
		</clipPath>
	</defs>
	<g clip-path="url(#clip_1)">
		<path fill="rgb(35,35,35)" stroke="none" transform="matrix(0.9917 0 0 0.9917 35.1504 16.288)" d="M0 0L12.8857 0C14.3143 0 14.6905 0.385714 14.6905 0.857143L14.6905 2.55714C14.6905 3.03333 14.3095 3.40952 12.8857 3.40952L3.91905 3.40952C4.39524 3.40952 4.01905 3.79524 4.01905 4.26667L4.01905 8.15714C4.01905 8.63333 4.4 9.00952 3.91905 9.00952L12.3238 9.00952C13.7524 9.00952 14.1333 9.39524 14.1333 9.86667L14.1333 11.4524C14.1333 11.9286 13.7476 12.3095 12.3238 12.3095L3.91905 12.3095C4.39524 12.3095 4.01905 12.6905 4.01905 13.1667L4.01905 17.6762C4.01904 18.1477 4.3999 18.5307 4.87143 18.5333L14.3952 18.5333C14.8686 18.5333 15.2524 18.9171 15.2524 19.3905L15.2524 21.1762C15.2498 21.6485 14.8675 22.0307 14.3952 22.0333L0.952381 22.0333C0.480076 22.0307 0.0978404 21.6485 0.0952381 21.1762L0.0952381 0.857143C0.0952381 0.385714 0.480953 0 0 0Z"/>
	</g>
	<defs>
		<clipPath id="clip_2">
			<rect x="-657.16992" y="-453.3197" width="1429.0397" height="2179.7566" clip-rule="evenodd"/>
		</clipPath>
	</defs>
	<g clip-path="url(#clip_2)">
		<path fill="rgb(35,35,35)" stroke="none" transform="matrix(0.9917 0 0 0.9917 54.3223 16.288)" d="M0.861597 0C0.38575 0 0 0.385888 0 0.861905L0 21.1714C0 21.6474 0.38575 22.0333 0.861597 22.0333L7.82577 22.0333C9.28956 22.0278 10.745 21.8129 12.148 21.3952C13.5672 20.9868 14.8975 20.3165 16.0704 19.419C17.2516 18.5077 18.2171 17.3467 18.898 16.019C19.6609 14.4738 20.0351 12.7656 19.9881 11.0429C20.0527 9.2344 19.6787 7.43718 18.898 5.80476C18.2296 4.47152 17.2618 3.31109 16.0704 2.41429C14.891 1.54386 13.5517 0.914411 12.129 0.561905C10.7175 0.193901 9.26535 0.00511515 7.80673 0L0.861597 0ZM10.2348 18.2524C9.235 18.4887 8.21128 18.6085 7.184 18.6095L4.80431 18.6095C4.32854 18.6095 3.94286 18.2236 3.94286 17.7476L3.94286 4.22381C3.94286 3.74779 4.32854 3.3619 4.80431 3.3619L7.184 3.3619C8.20867 3.36347 9.23064 3.46716 10.2348 3.67143C11.2191 3.86906 12.1543 4.2608 12.9857 4.82381C13.8379 5.42188 14.5268 6.22409 14.9894 7.15714C15.5538 8.36369 15.8215 9.68787 15.7699 11.019C15.8157 12.2977 15.5477 13.568 14.9894 14.719C14.5186 15.6427 13.8311 16.4385 12.9857 17.0381C12.1545 17.6147 11.2208 18.0269 10.2348 18.2524Z" fill-rule="evenodd"/>
	</g>
	<defs>
		<clipPath id="clip_3">
			<rect x="-657.16992" y="-453.3197" width="1429.0397" height="2179.7566" clip-rule="evenodd"/>
		</clipPath>
	</defs>
	<g clip-path="url(#clip_3)">
		<path fill="rgb(35,35,35)" stroke="none" transform="matrix(0.9917 0 0 0.9917 83.5527 16.3069)" d="M15.7056 16.7813L19.7707 20.9516C19.8734 21.0588 19.9024 21.217 19.8445 21.3537C19.7865 21.4905 19.6528 21.5795 19.5044 21.58L15.7959 21.58C15.6962 21.5804 15.6004 21.541 15.5297 21.4705L13.5993 19.4615C13.5285 19.3876 13.4306 19.3459 13.3283 19.3459C13.226 19.3459 13.1281 19.3876 13.0573 19.4615C12.4048 20.155 11.6435 20.7371 10.8037 21.1849C9.63338 21.7631 8.33743 22.0396 7.03338 21.9894C6.13017 21.9933 5.23135 21.8633 4.36611 21.6038C3.5512 21.3664 2.79049 20.9718 2.12674 20.4422C1.47937 19.9277 0.952012 19.2778 0.581533 18.538C0.179458 17.7064 -0.0193604 16.791 0.00148544 15.8673C-0.00731696 15.1502 0.125165 14.4384 0.391354 13.7726C0.640604 13.1619 0.987463 12.5959 1.41832 12.0968C1.84249 11.6035 2.33385 11.1724 2.87795 10.8162C3.28293 10.554 3.70371 10.3171 4.13789 10.1069C4.23981 10.0547 4.31193 9.95825 4.3333 9.84564C4.35468 9.73303 4.32292 9.61685 4.24725 9.53084C3.73627 8.9699 3.29413 8.34979 2.93025 7.68371C2.5197 6.91508 2.30725 6.056 2.31217 5.18437C2.26364 3.6393 2.97414 2.16844 4.21396 1.24731C4.78366 0.814941 5.42849 0.492106 6.11576 0.295186C6.81533 0.0992355 7.53836 -6.99581e-05 8.26479 2.6001e-05C9.00361 -0.0019069 9.73876 0.103939 10.4471 0.314229C11.1211 0.507847 11.751 0.831263 12.3014 1.26636C12.8416 1.70161 13.2812 2.24896 13.5898 2.87069C13.924 3.56965 14.087 4.33832 14.0653 5.11296C14.0721 5.74774 13.9575 6.37796 13.7277 6.96961C13.5019 7.52994 13.1907 8.05187 12.8053 8.51682C12.4109 8.99029 11.9515 9.40542 11.4408 9.74983C11.0434 10.0182 10.6306 10.263 10.2046 10.483C10.104 10.5384 10.0347 10.6375 10.017 10.7511C9.9993 10.8648 10.0352 10.9803 10.1143 11.0638L12.8814 13.963C12.961 14.0434 13.0725 14.0837 13.185 14.0726C13.2975 14.0615 13.3991 14.0003 13.4615 13.9059L15.5297 10.6305C15.5967 10.522 15.716 10.4569 15.8434 10.4592L18.9957 10.4592C19.1329 10.4599 19.2584 10.5364 19.3222 10.658C19.3859 10.7796 19.3773 10.9265 19.3 11.04L15.6628 16.2767C15.5448 16.4307 15.5634 16.6494 15.7056 16.7813ZM6.60124 3.5485C7.07237 3.11342 7.696 2.87895 8.33874 2.89526C8.99291 2.87374 9.62574 3.12821 10.081 3.59584C10.5197 4.02845 10.7636 4.61931 10.757 5.23369C10.7621 5.61091 10.6824 5.9845 10.5237 6.32717C10.3635 6.67133 10.1444 6.98524 9.87631 7.25497C9.58998 7.5383 9.27031 7.78624 8.92425 7.99342C8.61538 8.16754 8.2976 8.32555 7.9722 8.46679C7.83233 8.52787 7.66929 8.49991 7.55806 8.39579C7.09414 7.96988 6.69345 7.48057 6.36799 6.94255C6.05687 6.42447 5.89239 5.83239 5.89197 5.22896C5.86866 4.59239 6.12804 3.97784 6.60124 3.5485ZM6.74092 12.3757C6.63805 12.2665 6.47966 12.2309 6.34035 12.2856C6.03896 12.4007 5.74738 12.5403 5.46854 12.703C5.1312 12.8925 4.8232 13.1305 4.5543 13.4097C4.28367 13.6971 4.06942 14.0334 3.92283 14.4009C3.76055 14.821 3.68054 15.2687 3.6872 15.7194C3.68006 16.2009 3.78666 16.6771 3.99823 17.109C4.18994 17.5093 4.46474 17.8635 4.80407 18.1477C5.13717 18.4228 5.51503 18.6378 5.92094 18.7832C6.30754 18.9261 6.71554 19.0014 7.12735 19.0061C7.90041 19.0287 8.66433 18.8332 9.33281 18.4417C9.90007 18.0846 10.4009 17.6304 10.8125 17.0995C10.9199 16.9566 10.9099 16.7568 10.789 16.6253L6.74092 12.3757Z" fill-rule="evenodd"/>
	</g>
	<defs>
		<clipPath id="clip_4">
			<rect x="-657.16992" y="-453.3197" width="1429.0397" height="2179.7566" clip-rule="evenodd"/>
		</clipPath>
	</defs>
	<g clip-path="url(#clip_4)">
		<path fill="rgb(35,35,35)" stroke="none" transform="matrix(0.9917 0 0 0.9917 154.953 33.8881)" d="M7.0888e-05 2.25707C-0.00480501 1.6552 0.242047 1.07867 0.680974 0.666801C1.1124 0.232262 1.70189 -0.0083325 2.31419 0.000220492C2.9162 -0.00531582 3.49676 0.223482 3.93312 0.638233C4.38362 1.03097 4.63798 1.60238 4.6283 2.19994C4.63617 2.80143 4.3908 3.37853 3.95216 3.79021C3.52021 4.22689 2.92833 4.46775 2.31419 4.45679C2.01216 4.45792 1.71286 4.39968 1.4333 4.28538C1.16107 4.17156 0.911181 4.01035 0.695258 3.80925C0.481231 3.61637 0.309393 3.38132 0.190533 3.11886C0.0639553 2.84927 -0.00110141 2.5549 7.0888e-05 2.25707Z"/>
	</g>
	<defs>
		<clipPath id="clip_5">
			<rect x="-657.16992" y="-453.3197" width="1429.0397" height="2179.7566" clip-rule="evenodd"/>
		</clipPath>
	</defs>
	<g clip-path="url(#clip_5)">
		<path fill="rgb(35,35,35)" stroke="none" transform="matrix(0.9917 0 0 0.9917 112.18 16.585)" d="M40.8228 6.37643C40.3547 5.09566 39.6249 3.92644 38.6801 2.94326C37.7591 1.99963 36.6515 1.25849 35.4279 0.767179C34.1177 0.246753 32.7188 -0.0136336 31.3091 0.000549746C29.9118 -0.0128269 28.5255 0.247619 27.2284 0.767179C26.0113 1.25764 24.9113 1.99912 24 2.94326C23.1742 3.8431 22.5047 4.87475 22.0192 5.99549C20.8955 8.243 18.648 14.6094 12.934 17.8997C12.1027 18.3582 11.1642 18.5866 10.2152 18.5615C9.2975 18.5764 8.38811 18.3861 7.55343 18.0044C6.76817 17.6347 6.07399 17.0966 5.52022 16.4283C4.93176 15.7112 4.48861 14.8864 4.21554 13.9999C3.89426 12.9916 3.73357 11.9391 3.73938 10.881C3.73149 9.86003 3.89238 8.84482 4.21554 7.87635C4.50475 6.99322 4.96057 6.17371 5.55831 5.46219C6.13352 4.78353 6.84381 4.23216 7.6439 3.84322C9.23963 3.08104 11.0889 3.05495 12.7055 3.77179C13.4087 4.06778 14.0225 4.5421 14.4863 5.14792C14.5343 5.21312 14.6074 5.25533 14.6878 5.26437C14.7683 5.27341 14.8488 5.24846 14.9101 5.19553L17.0528 3.33848C17.1685 3.24035 17.1873 3.06891 17.0957 2.94802C16.7515 2.50232 16.3441 2.1093 15.8862 1.78141C15.3488 1.39179 14.7709 1.06132 14.1625 0.795749C13.5514 0.529352 12.9126 0.331334 12.2579 0.205302C11.6302 0.083819 10.9926 0.020064 10.3533 0.0148348C8.953 0.00229757 7.56371 0.262691 6.26303 0.781464C5.0294 1.26835 3.90935 2.00426 2.97276 2.94326C2.02234 3.92843 1.28202 5.09645 0.796707 6.37643C0.246991 7.81851 -0.0228849 9.35214 0.00151882 10.8953C-0.0165396 12.414 0.238283 13.9236 0.753853 15.3522C1.22037 16.6367 1.93373 17.8176 2.85372 18.8282C3.75417 19.803 4.85131 20.5756 6.07257 21.0947C7.37039 21.6444 8.76776 21.92 10.1771 21.9042C11.66 21.9226 13.1269 21.5966 14.4625 20.9519C19.0099 18.733 22.0192 13.4856 22.0192 13.4856C22.6953 12.2238 23.3001 11.1048 23.8286 10.1524C23.8286 10.1143 23.8524 10.0667 23.8619 10.0239L23.8953 10.0239C24.7086 8.44923 25.6149 6.92439 26.6094 5.45742C27.173 4.77856 27.8741 4.22679 28.6664 3.83846C29.5011 3.43848 30.4169 3.23643 31.3424 3.24801C32.274 3.23691 33.1959 3.43886 34.0375 3.83846C34.834 4.22656 35.5398 4.77821 36.1088 5.45742C36.6983 6.173 37.1504 6.9915 37.442 7.87159C37.7652 8.84006 37.9261 9.85527 37.9182 10.8762C37.9282 11.9207 37.7674 12.9597 37.442 13.9522C37.1515 14.8401 36.6942 15.6644 36.0945 16.3807C34.9172 17.7877 33.1672 18.5875 31.3329 18.5568C30.4186 18.5686 29.5135 18.3732 28.6854 17.9854C27.8875 17.6037 27.1798 17.0567 26.6094 16.3807C25.9748 15.5983 25.3956 14.7725 24.8762 13.9094L23.8286 12.2571C23.228 13.3575 22.57 14.4256 21.8573 15.4569L22.3811 16.5045L22.3811 16.5045C22.8053 17.3569 23.347 18.1455 23.9905 18.8472C24.8966 19.8198 25.9964 20.5919 27.2189 21.1138C28.509 21.6611 29.8982 21.9367 31.2996 21.9233C32.7134 21.9376 34.1151 21.6621 35.4184 21.1138C36.6544 20.5877 37.767 19.8092 38.6848 18.8282C39.6243 17.8245 40.3529 16.6425 40.8275 15.3522C41.3526 13.9257 41.6124 12.4152 41.5942 10.8953C41.6143 9.35457 41.3529 7.82316 40.8228 6.37643Z"/>
	</g>
	<defs>
		<clipPath id="clip_6">
			<rect x="-657.16992" y="-453.3197" width="1429.0397" height="2179.7566" clip-rule="evenodd"/>
		</clipPath>
	</defs>
	<g clip-path="url(#clip_6)">
		<path fill="rgb(35,35,35)" stroke="none" transform="matrix(0.9917 0 0 0.9917 64.127 0.878906)" d="M0 0L32.881 0L32.881 3.80952L0 3.80952L0 0Z"/>
	</g>
	<defs>
		<clipPath id="clip_7">
			<rect x="-657.16992" y="-453.3197" width="1429.0397" height="2179.7566" clip-rule="evenodd"/>
		</clipPath>
	</defs>
	<g clip-path="url(#clip_7)">
		<path fill="rgb(35,35,35)" stroke="none" transform="matrix(0.9917 0 0 0.9917 64.127 65.1033)" d="M0 0L32.881 0L32.881 3.80952L0 3.80952L0 0Z"/>
	</g>
	<defs>
		<clipPath id="clip_8">
			<rect x="-657.16992" y="-453.3197" width="1429.0397" height="2179.7566" clip-rule="evenodd"/>
		</clipPath>
	</defs>
	<g clip-path="url(#clip_8)">
		<path fill="rgb(35,35,35)" stroke="none" transform="matrix(0.9917 0 0 0.9917 7.45898 49.3636)" d="M2.3 0.904762L2.3 4.38572L1.24286 4.38572L1.24286 0.904762L0 0.904762L0 0L3.53334 0L3.53334 0.904762L2.3 0.904762Z"/>
	</g>
	<defs>
		<clipPath id="clip_9">
			<rect x="-657.16992" y="-453.3197" width="1429.0397" height="2179.7566" clip-rule="evenodd"/>
		</clipPath>
	</defs>
	<g clip-path="url(#clip_9)">
		<path fill="rgb(35,35,35)" stroke="none" transform="matrix(0.9917 0 0 0.9917 12.6777 49.3494)" d="M2.76666 4.4L2.76666 2.55238L1.05714 2.55238L1.05714 4.38572L0 4.38572L0 0L1.05714 0L1.05714 1.66191L2.76666 1.66191L2.76666 0L3.8238 0L3.8238 4.38572L2.76666 4.4Z"/>
	</g>
	<defs>
		<clipPath id="clip_10">
			<rect x="-657.16992" y="-453.3197" width="1429.0397" height="2179.7566" clip-rule="evenodd"/>
		</clipPath>
	</defs>
	<g clip-path="url(#clip_10)">
		<path fill="rgb(35,35,35)" stroke="none" transform="matrix(0.9917 0 0 0.9917 18.5938 49.3636)" d="M0 4.38571L0 0L2.94762 0L2.94762 0.895238L1.01905 0.895238L1.01905 1.72381L2.84286 1.72381L2.84286 2.57143L1.01905 2.57143L1.01905 3.49048L3.05715 3.49048L3.05715 4.39524L0 4.38571Z"/>
	</g>
	<defs>
		<clipPath id="clip_11">
			<rect x="-657.16992" y="-453.3197" width="1429.0397" height="2179.7566" clip-rule="evenodd"/>
		</clipPath>
	</defs>
	<g clip-path="url(#clip_11)">
		<path fill="rgb(35,35,35)" stroke="none" transform="matrix(0.9917 0 0 0.9917 25.7871 49.3636)" d="M5.09524 4.38572L4.05238 4.38572L3.18572 1.41905L3.18572 1.41905L2.31905 4.38572L1.24762 4.38572L0 0L1.14286 0L1.83333 2.91905L1.83333 2.91905L2.61429 0L3.71429 0L4.50476 2.91905L4.50476 2.91905L5.21429 0L6.31429 0L5.09524 4.38572Z"/>
	</g>
	<defs>
		<clipPath id="clip_12">
			<rect x="-657.16992" y="-453.3197" width="1429.0397" height="2179.7566" clip-rule="evenodd"/>
		</clipPath>
	</defs>
	<g clip-path="url(#clip_12)">
		<path fill="rgb(35,35,35)" stroke="none" transform="matrix(0.9917 0 0 0.9917 33.7559 49.3636)" d="M0 4.38571L0 0L2.94761 0L2.94761 0.895238L1.04286 0.895238L1.04286 1.72381L2.86666 1.72381L2.86666 2.57143L1.01905 2.57143L1.01905 3.49048L3.05714 3.49048L3.05714 4.39524L0 4.38571Z"/>
	</g>
	<defs>
		<clipPath id="clip_13">
			<rect x="-657.16992" y="-453.3197" width="1429.0397" height="2179.7566" clip-rule="evenodd"/>
		</clipPath>
	</defs>
	<g clip-path="url(#clip_13)">
		<path fill="rgb(35,35,35)" stroke="none" transform="matrix(0.9917 0 0 0.9917 38.7109 49.3636)" d="M3.87506 3.17619C4.02465 2.86623 4.0981 2.52503 4.08928 2.18095C4.1009 1.82285 4.02749 1.46709 3.87506 1.14286C3.74192 0.876003 3.54586 0.645565 3.3038 0.471429C3.06268 0.297911 2.78905 0.174822 2.49927 0.109524C2.19993 0.0373885 1.89316 0.000629363 1.58525 0L0 0L0 4.38572L1.63286 4.38572C1.93422 4.38572 2.23402 4.34242 2.52307 4.25714C2.8093 4.17707 3.07754 4.04291 3.31332 3.86191C3.54995 3.67872 3.74201 3.44428 3.87506 3.17619ZM2.86958 1.56664C2.95408 1.76009 2.9947 1.96987 2.9885 2.18091C2.99981 2.39909 2.96243 2.61706 2.87909 2.81898C2.8036 2.97421 2.69281 3.10957 2.55561 3.2142C2.41356 3.31781 2.25157 3.39077 2.0799 3.42848C1.90073 3.47127 1.71702 3.49205 1.53283 3.49038L1.03333 3.49038L1.03333 0.904762L1.54234 0.904762C1.72009 0.90601 1.89716 0.926768 2.07038 0.966665C2.24181 1.00254 2.40385 1.0739 2.54609 1.17618C2.68522 1.27681 2.79653 1.41116 2.86958 1.56664Z" fill-rule="evenodd"/>
	</g>
	<defs>
		<clipPath id="clip_14">
			<rect x="-657.16992" y="-453.3197" width="1429.0397" height="2179.7566" clip-rule="evenodd"/>
		</clipPath>
	</defs>
	<g clip-path="url(#clip_14)">
		<path fill="rgb(35,35,35)" stroke="none" transform="matrix(0.9917 0 0 0.9917 44.6895 49.3636)" d="M3.87981 3.17619C4.02556 2.86508 4.09725 2.52443 4.08928 2.18095C4.10089 1.82285 4.02748 1.46709 3.87505 1.14286C3.74339 0.875027 3.54705 0.644258 3.30379 0.471429C3.06314 0.297104 2.78934 0.173937 2.49927 0.109524C2.19992 0.0373885 1.89316 0.000629363 1.58525 0L0 0L0 4.38572L1.63285 4.38572C1.93578 4.38572 2.23715 4.34242 2.52783 4.25714C2.81221 4.17607 3.07872 4.04197 3.31331 3.86191C3.5501 3.67762 3.7435 3.44353 3.87981 3.17619ZM2.87046 1.56665C2.9569 1.7595 2.99762 1.96973 2.98944 2.18092C2.99582 2.40114 2.95017 2.61976 2.85618 2.819C2.78065 2.97423 2.66981 3.1096 2.53254 3.21423C2.39021 3.31747 2.22823 3.39041 2.0566 3.42851C1.87569 3.47103 1.69035 3.49181 1.50451 3.49041L1.02857 3.49041L1.02857 0.904762L1.54259 0.904762C1.72042 0.90601 1.89757 0.926769 2.07088 0.966665C2.24239 1.00254 2.40451 1.07391 2.54682 1.17618C2.68601 1.27681 2.79738 1.41117 2.87046 1.56665Z" fill-rule="evenodd"/>
	</g>
	<defs>
		<clipPath id="clip_15">
			<rect x="-657.16992" y="-453.3197" width="1429.0397" height="2179.7566" clip-rule="evenodd"/>
		</clipPath>
	</defs>
	<g clip-path="url(#clip_15)">
		<path fill="rgb(35,35,35)" stroke="none" transform="matrix(0.9917 0 0 0.9917 50.668 49.3636)" d="M0 4.38572L0 0L1.06666 0L1.06666 4.38572L0 4.38572Z"/>
	</g>
	<defs>
		<clipPath id="clip_16">
			<rect x="-657.16992" y="-453.3197" width="1429.0397" height="2179.7566" clip-rule="evenodd"/>
		</clipPath>
	</defs>
	<g clip-path="url(#clip_16)">
		<path fill="rgb(35,35,35)" stroke="none" transform="matrix(0.9917 0 0 0.9917 53.8691 49.3636)" d="M2.76667 4.38572L1 1.52857L1 1.52857L1.02857 4.38572L0 4.38572L0 0L1.20476 0L2.96191 2.85714L2.96191 2.85714L2.96191 0L3.99048 0L3.99048 4.38572L2.76667 4.38572Z"/>
	</g>
	<defs>
		<clipPath id="clip_17">
			<rect x="-657.16992" y="-453.3197" width="1429.0397" height="2179.7566" clip-rule="evenodd"/>
		</clipPath>
	</defs>
	<g clip-path="url(#clip_17)">
		<path fill="rgb(35,35,35)" stroke="none" transform="matrix(0.9917 0 0 0.9917 59.7441 49.2215)" d="M3.3239 4.53295C3.01203 4.60711 2.69216 4.6423 2.37163 4.6377C2.04669 4.64074 1.72394 4.58427 1.41935 4.47106C1.13518 4.36682 0.875757 4.2047 0.65753 3.99496C0.449909 3.78972 0.287697 3.54317 0.181392 3.27128C0.0556206 2.96988 -0.00599841 2.64559 0.000459937 2.31907C-0.00293894 1.99281 0.058564 1.66914 0.181392 1.36686C0.297143 1.0916 0.469039 0.843503 0.686098 0.638423C0.902847 0.429127 1.16062 0.267017 1.44316 0.162319C1.74768 0.0493501 2.07068 -0.0055559 2.39543 0.000443572C2.71941 -0.000747011 3.04129 0.0523599 3.34771 0.157558C3.61596 0.246587 3.86252 0.390946 4.07144 0.58129L3.40008 1.34306C3.28867 1.21594 3.15045 1.11512 2.99537 1.04787C2.81357 0.969473 2.6172 0.930528 2.41924 0.933607C2.24283 0.931826 2.0679 0.965839 1.90501 1.03359C1.75157 1.10187 1.61259 1.19883 1.49553 1.31925C1.37898 1.4447 1.28837 1.59194 1.2289 1.75251C1.16103 1.92699 1.12709 2.11282 1.12891 2.30003C1.12561 2.48961 1.15624 2.67827 1.21937 2.85707C1.27243 3.01993 1.36014 3.16937 1.47649 3.29508C1.59439 3.41884 1.7372 3.51621 1.89549 3.58075C2.07781 3.65024 2.27176 3.68417 2.46685 3.68073C2.5849 3.68126 2.70278 3.67171 2.8192 3.65216C2.92518 3.63497 3.02896 3.60624 3.12868 3.56646L3.12868 2.76661L2.29544 2.76661L2.29544 1.90962L4.10001 1.90962L4.10001 4.23301C3.85433 4.36387 3.59374 4.46458 3.3239 4.53295Z"/>
	</g>
	<defs>
		<clipPath id="clip_18">
			<rect x="-657.16992" y="-453.3197" width="1429.0397" height="2179.7566" clip-rule="evenodd"/>
		</clipPath>
	</defs>
	<g clip-path="url(#clip_18)">
		<path fill="rgb(35,35,35)" stroke="none" transform="matrix(0.9917 0 0 0.9917 68.6367 49.3635)" d="M3.18474 2.00006C3.28408 1.7991 3.33154 1.57646 3.32279 1.35245C3.32991 1.13421 3.28589 0.917323 3.19426 0.719132C3.10661 0.552637 2.98105 0.409093 2.8277 0.300094C2.66081 0.190916 2.47522 0.113434 2.28025 0.0715277C2.05997 0.0222031 1.83476 -0.00176156 1.60903 0.000100735L0 0.000100735L0 4.38572L1.06158 4.38572L1.06158 2.73337L1.58523 2.73337C1.80637 2.73264 2.02673 2.70708 2.24217 2.65718C2.44011 2.6128 2.62866 2.53382 2.79914 2.42386C2.95951 2.31524 3.0917 2.16996 3.18474 2.00006ZM2.20355 1.09763C2.24714 1.17358 2.26855 1.26004 2.26539 1.34734L2.26539 1.35205C2.27303 1.45506 2.24629 1.55769 2.18928 1.64417C2.14951 1.71322 2.0899 1.76898 2.01803 1.80436C1.9428 1.84746 1.86079 1.87772 1.77543 1.89388C1.68044 1.90128 1.58501 1.90128 1.49001 1.89388L1.04762 1.89388L1.04762 0.871472L1.52331 0.871472C1.61514 0.864302 1.70739 0.864302 1.79921 0.871472C1.88243 0.879237 1.96327 0.903258 2.03706 0.942146C2.10636 0.977232 2.16412 1.03117 2.20355 1.09763Z" fill-rule="evenodd"/>
	</g>
	<defs>
		<clipPath id="clip_19">
			<rect x="-657.16992" y="-453.3197" width="1429.0397" height="2179.7566" clip-rule="evenodd"/>
		</clipPath>
	</defs>
	<g clip-path="url(#clip_19)">
		<path fill="rgb(35,35,35)" stroke="none" transform="matrix(0.9917 0 0 0.9917 73.793 49.3636)" d="M0 4.38572L0 0L1.06667 0L1.06667 3.46191L2.7619 3.46191L2.7619 4.38572L0 4.38572Z"/>
	</g>
	<defs>
		<clipPath id="clip_20">
			<rect x="-657.16992" y="-453.3197" width="1429.0397" height="2179.7566" clip-rule="evenodd"/>
		</clipPath>
	</defs>
	<g clip-path="url(#clip_20)">
		<path fill="rgb(35,35,35)" stroke="none" transform="matrix(0.9917 0 0 0.9917 77.7188 49.3636)" d="M3.17143 3.52381L3.50953 4.38572L4.68572 4.38572L2.86667 0L1.8381 0L0 4.38572L1.15238 4.38572L1.47143 3.52381L3.17143 3.52381ZM1.77619 2.67619L2.33333 1.17143L2.88095 2.67619L1.77619 2.67619Z" fill-rule="evenodd"/>
	</g>
	<defs>
		<clipPath id="clip_21">
			<rect x="-657.16992" y="-453.3197" width="1429.0397" height="2179.7566" clip-rule="evenodd"/>
		</clipPath>
	</defs>
	<g clip-path="url(#clip_21)">
		<path fill="rgb(35,35,35)" stroke="none" transform="matrix(0.9917 0 0 0.9917 83.9609 49.3636)" d="M2.78095 4.38572L1.01428 1.52857L1.01428 1.52857L1.04286 4.38572L0 4.38572L0 0L1.20476 0L2.96666 2.85714L2.96666 2.85714L2.94285 0L3.97142 0L3.97142 4.38572L2.78095 4.38572Z"/>
	</g>
	<defs>
		<clipPath id="clip_22">
			<rect x="-657.16992" y="-453.3197" width="1429.0397" height="2179.7566" clip-rule="evenodd"/>
		</clipPath>
	</defs>
	<g clip-path="url(#clip_22)">
		<path fill="rgb(35,35,35)" stroke="none" transform="matrix(0.9917 0 0 0.9917 90.0527 49.3636)" d="M2.76667 4.38572L1 1.52857L1 1.52857L1.02857 4.38572L0 4.38572L0 0L1.20476 0L2.96667 2.85714L2.96667 2.85714L2.94286 0L3.97143 0L3.97143 4.38572L2.76667 4.38572Z"/>
	</g>
	<defs>
		<clipPath id="clip_23">
			<rect x="-657.16992" y="-453.3197" width="1429.0397" height="2179.7566" clip-rule="evenodd"/>
		</clipPath>
	</defs>
	<g clip-path="url(#clip_23)">
		<path fill="rgb(35,35,35)" stroke="none" transform="matrix(0.9917 0 0 0.9917 96.1113 49.3636)" d="M0 4.38572L0 0L1.08096 0L1.08096 4.38572L0 4.38572Z"/>
	</g>
	<defs>
		<clipPath id="clip_24">
			<rect x="-657.16992" y="-453.3197" width="1429.0397" height="2179.7566" clip-rule="evenodd"/>
		</clipPath>
	</defs>
	<g clip-path="url(#clip_24)">
		<path fill="rgb(35,35,35)" stroke="none" transform="matrix(0.9917 0 0 0.9917 99.3086 49.3636)" d="M2.76666 4.38572L1.00476 1.52857L1.00476 1.52857L1.02857 4.38572L0 4.38572L0 0L1.19047 0L2.94761 2.85714L2.94761 2.85714L2.94761 0L3.97142 0L3.97142 4.38572L2.76666 4.38572Z"/>
	</g>
	<defs>
		<clipPath id="clip_25">
			<rect x="-657.16992" y="-453.3197" width="1429.0397" height="2179.7566" clip-rule="evenodd"/>
		</clipPath>
	</defs>
	<g clip-path="url(#clip_25)">
		<path fill="rgb(35,35,35)" stroke="none" transform="matrix(0.9917 0 0 0.9917 105.164 49.2216)" d="M3.34765 4.53296C3.03576 4.60712 2.71587 4.6423 2.39532 4.6377C2.07033 4.64118 1.74748 4.58469 1.44298 4.47106C1.15823 4.36797 0.898571 4.2057 0.681118 3.99495C0.465118 3.79181 0.294704 3.54515 0.181142 3.27126C0.0575644 2.9692 -0.00397105 2.64536 0.000198569 2.31903C-0.00392648 1.99225 0.0592877 1.66811 0.185904 1.36681C0.300011 1.09064 0.472143 0.842214 0.690641 0.638359C0.906428 0.430145 1.16243 0.268138 1.44298 0.162246C1.74767 0.0498163 2.07059 -0.00507328 2.39532 0.000368368C2.71938 -0.00164299 3.04142 0.0514874 3.34765 0.157485C3.61639 0.245458 3.86318 0.389942 4.07143 0.581225L3.40479 1.343C3.29158 1.21579 3.15178 1.11501 2.99529 1.04782C2.81365 0.968852 2.61715 0.929881 2.41913 0.933548C2.07171 0.924675 1.73715 1.06507 1.50012 1.3192C1.38049 1.44316 1.28805 1.59073 1.22871 1.75246C1.16478 1.92789 1.13253 2.11328 1.13348 2.29999C1.13102 2.48914 1.15999 2.67738 1.21919 2.85704C1.27224 3.01991 1.35997 3.16934 1.47632 3.29506C1.59513 3.41776 1.73771 3.51496 1.89534 3.58073C2.07945 3.64981 2.27489 3.68373 2.47151 3.68072C2.58955 3.68105 2.70742 3.67149 2.82387 3.65215C2.92973 3.63436 3.03345 3.60564 3.13338 3.56645L3.13338 2.76658L2.29532 2.76658L2.29532 1.90958L4.10476 1.90958L4.10476 4.23301C3.86473 4.36168 3.61069 4.46232 3.34765 4.53296L3.34765 4.53296Z"/>
	</g>
	<defs>
		<clipPath id="clip_26">
			<rect x="-657.16992" y="-453.3197" width="1429.0397" height="2179.7566" clip-rule="evenodd"/>
		</clipPath>
	</defs>
	<g clip-path="url(#clip_26)">
		<path fill="rgb(35,35,35)" stroke="none" transform="matrix(0.9917 0 0 0.9917 113.881 49.2167)" d="M3.33813 4.45663C3.02685 4.58943 2.69083 4.65435 2.35247 4.64707C2.02725 4.6534 1.70387 4.59682 1.40014 4.48043C1.1223 4.37473 0.869385 4.21263 0.657319 4.00434C0.450929 3.79442 0.288982 3.54506 0.181154 3.27116C0.057451 2.96914 -0.00408913 2.6453 0.000210739 2.31897C-0.00318833 1.99272 0.0583182 1.66905 0.181154 1.36678C0.296911 1.09153 0.468817 0.843438 0.685889 0.638362C0.90265 0.429071 1.16044 0.266965 1.44299 0.162269C1.74762 0.0496284 2.07058 -0.00526582 2.39532 0.000397513C2.70724 -1.22674e-05 3.01676 0.0547905 3.30956 0.162269C3.58841 0.257552 3.83889 0.421244 4.03809 0.638362L3.31908 1.35726C3.22056 1.22063 3.08511 1.11493 2.92863 1.05256C2.77779 0.989011 2.61613 0.955068 2.45246 0.952583C2.27698 0.949518 2.103 0.985285 1.94297 1.05732C1.79101 1.12115 1.65459 1.21695 1.54299 1.33822C1.42966 1.46161 1.34079 1.6054 1.2811 1.76194C1.21877 1.9327 1.18811 2.1134 1.19062 2.29517C1.18774 2.48161 1.21839 2.66706 1.2811 2.84267C1.33915 2.99894 1.42641 3.14274 1.53823 3.2664C1.65043 3.38364 1.78475 3.47749 1.93344 3.54253C2.0849 3.60346 2.24636 3.63575 2.40961 3.63775C2.60121 3.64366 2.79121 3.60108 2.96196 3.51396C3.11137 3.43972 3.24047 3.33024 3.33813 3.19498L4.07619 3.88532C3.87537 4.12789 3.62331 4.323 3.33813 4.45663L3.33813 4.45663Z"/>
	</g>
	<defs>
		<clipPath id="clip_27">
			<rect x="-657.16992" y="-453.3197" width="1429.0397" height="2179.7566" clip-rule="evenodd"/>
		</clipPath>
	</defs>
	<g clip-path="url(#clip_27)">
		<path fill="rgb(35,35,35)" stroke="none" transform="matrix(0.9917 0 0 0.9917 119.303 49.236)" d="M4.59509 3.02644C4.71816 2.74559 4.77968 2.44475 4.77602 2.14153C4.77981 1.83974 4.71828 1.54031 4.59509 1.26105C4.48264 1.00725 4.31203 0.779259 4.09513 0.592948C3.87998 0.396547 3.62174 0.245624 3.33805 0.150496C2.72154 -0.0501653 2.04995 -0.0501653 1.43344 0.150496C1.15171 0.246683 0.89525 0.397512 0.68112 0.592948C0.464219 0.779259 0.293609 1.00725 0.181161 1.26105C0.057336 1.54169 -0.00420723 1.84268 0.000223292 2.14596C-0.00343044 2.44917 0.0580837 2.75002 0.181161 3.03086C0.410128 3.55232 0.864633 3.96021 1.43344 4.15469C2.04887 4.36114 2.72261 4.36114 3.33805 4.15469C3.62135 4.05882 3.87943 3.90799 4.09513 3.71224C4.31135 3.51848 4.48164 3.28489 4.59509 3.02644ZM3.54772 1.74162C3.61127 1.9059 3.64353 2.07986 3.64296 2.25516C3.6439 2.43497 3.61166 2.61351 3.54772 2.78245C3.49087 2.93488 3.40351 3.07508 3.29059 3.19512C3.17718 3.3099 3.04122 3.40185 2.89061 3.46564C2.73228 3.53509 2.55983 3.56955 2.38588 3.56652C2.2104 3.56947 2.03641 3.53502 1.87638 3.46564C1.72791 3.40292 1.59486 3.31074 1.48592 3.19512C1.373 3.07508 1.28564 2.93488 1.22879 2.78245C1.16486 2.61351 1.13261 2.43497 1.13356 2.25516C1.13146 2.08014 1.16211 1.90619 1.22403 1.74162C1.28088 1.59057 1.36827 1.45186 1.48116 1.33355C1.59317 1.21926 1.72747 1.12733 1.87638 1.06302C2.20295 0.93459 2.5688 0.93459 2.89538 1.06302C3.04499 1.12613 3.17952 1.21822 3.29059 1.33355C3.40348 1.45186 3.49088 1.59057 3.54772 1.74162Z" fill-rule="evenodd"/>
	</g>
	<defs>
		<clipPath id="clip_28">
			<rect x="-657.16992" y="-453.3197" width="1429.0397" height="2179.7566" clip-rule="evenodd"/>
		</clipPath>
	</defs>
	<g clip-path="url(#clip_28)">
		<path fill="rgb(35,35,35)" stroke="none" transform="matrix(0.9917 0 0 0.9917 125.941 49.3636)" d="M3.99047 4.38572L4.01428 1.28095L4.01428 1.28095L2.87618 4.38572L2.13333 4.38572L0.999998 1.28095L0.999998 1.28095L0.999998 4.38572L0 4.38572L0 0L1.50952 0L2.50476 2.81429L2.52857 2.81429L3.48095 0L5.00951 0L5.00951 4.38572L3.99047 4.38572Z"/>
	</g>
	<defs>
		<clipPath id="clip_29">
			<rect x="-657.16992" y="-453.3197" width="1429.0397" height="2179.7566" clip-rule="evenodd"/>
		</clipPath>
	</defs>
	<g clip-path="url(#clip_29)">
		<path fill="rgb(35,35,35)" stroke="none" transform="matrix(0.9917 0 0 0.9917 133.074 49.3635)" d="M3.15395 2.00003C3.25486 1.7995 3.30393 1.57684 3.29666 1.35242C3.31195 1.13556 3.2744 0.918222 3.18725 0.719092C3.10121 0.551539 2.97544 0.407658 2.82096 0.300049C2.65636 0.190018 2.4723 0.112441 2.27865 0.0714803C2.05843 0.0226793 1.83344 -0.00127924 1.6079 5.26116e-05L0 5.26116e-05L0 4.38572L1.03229 4.38572L1.03229 2.73335L1.56033 2.73335C1.78128 2.73207 2.00142 2.70652 2.2168 2.65716C2.4146 2.61278 2.60302 2.53379 2.77338 2.42383C2.93109 2.31372 3.06132 2.16869 3.15395 2.00003ZM2.18 1.09758C2.22359 1.17353 2.24501 1.25999 2.24185 1.34729L2.24185 1.352C2.2483 1.45427 2.22343 1.55609 2.17048 1.64412C2.12785 1.7109 2.06895 1.76598 1.99919 1.80432C1.92394 1.84741 1.84192 1.87767 1.75654 1.89384C1.66152 1.90123 1.56607 1.90123 1.47106 1.89384L1.02381 1.89384L1.02381 0.871424L1.4996 0.871424C1.59145 0.864254 1.68372 0.864254 1.77557 0.871424C1.85866 0.879893 1.93939 0.903873 2.01347 0.942097C2.08092 0.979735 2.13809 1.03311 2.18 1.09758Z" fill-rule="evenodd"/>
	</g>
	<defs>
		<clipPath id="clip_30">
			<rect x="-657.16992" y="-453.3197" width="1429.0397" height="2179.7566" clip-rule="evenodd"/>
		</clipPath>
	</defs>
	<g clip-path="url(#clip_30)">
		<path fill="rgb(35,35,35)" stroke="none" transform="matrix(0.9917 0 0 0.9917 137.324 49.3636)" d="M3.14762 3.52381L3.49048 4.38572L4.67619 4.38572L2.85714 0L1.83809 0L0 4.38572L1.13333 4.38572L1.45238 3.52381L3.14762 3.52381ZM1.75714 2.67619L2.31429 1.17143L2.85714 2.67619L1.75714 2.67619Z" fill-rule="evenodd"/>
	</g>
	<defs>
		<clipPath id="clip_31">
			<rect x="-657.16992" y="-453.3197" width="1429.0397" height="2179.7566" clip-rule="evenodd"/>
		</clipPath>
	</defs>
	<g clip-path="url(#clip_31)">
		<path fill="rgb(35,35,35)" stroke="none" transform="matrix(0.9917 0 0 0.9917 143.553 49.3636)" d="M2.76666 4.38572L0.999998 1.52857L0.999998 1.52857L1.02381 4.38572L0 4.38572L0 0L1.20476 0L2.9619 2.85714L2.9619 2.85714L2.93809 0L3.96666 0L3.96666 4.38572L2.76666 4.38572Z"/>
	</g>
	<defs>
		<clipPath id="clip_32">
			<rect x="-657.16992" y="-453.3197" width="1429.0397" height="2179.7566" clip-rule="evenodd"/>
		</clipPath>
	</defs>
	<g clip-path="url(#clip_32)">
		<path fill="rgb(35,35,35)" stroke="none" transform="matrix(0.9917 0 0 0.9917 149.049 49.373)" d="M2.70476 2.52857L2.70476 4.38572L1.64286 4.38572L1.64286 2.52857L0 0L1.28095 0L2.23333 1.62381L3.18572 0L4.36667 0L2.70476 2.52857Z"/>
	</g>

</svg>