<?xml version="1.0" encoding="utf-8" ?>
<svg xmlns="http://www.w3.org/2000/svg" xmlns:xlink="http://www.w3.org/1999/xlink" width="25" height="20">
	<path fill="rgb(108,109,238)" fill-opacity="0.90196079" stroke="none" transform="translate(15 1)" d="M9.94641 0L0 9.79368L9.89716 18C9.96162 17.8388 10 17.6641 10 17.4794L10 0.365106C10 0.238174 9.97827 0.117661 9.94641 0"/>
	<path fill="rgb(108,109,238)" fill-opacity="0.90196079" stroke="none" transform="translate(1 0)" d="M23 0.0535391C22.8858 0.0224286 22.7674 0 22.6434 0L0.355903 0C0.232626 0 0.114223 0.0224286 0 0.0535391L11.4997 12L23 0.0535391Z"/>
	<path fill="rgb(108,109,238)" fill-opacity="0.90196079" stroke="none" transform="translate(0 1)" d="M0.0535921 0C0.0224508 0.117661 0 0.238174 0 0.365106L0 17.4794C0 17.6641 0.0383835 17.8388 0.102839 18L10 9.79368L0.0535921 0Z"/>
	<path fill="rgb(108,109,238)" fill-opacity="0.90196079" stroke="none" transform="translate(1 12)" d="M12.0009 1.45448C11.8627 1.59183 11.6814 1.66086 11.5 1.66086C11.3186 1.66086 11.1373 1.59183 10.9991 1.45448L9.5361 0L0 7.9838C0.0545527 7.98943 0.107689 8 0.164367 8L22.8356 8C22.8916 8 22.9454 7.98943 23 7.9838L13.4639 0L12.0009 1.45448Z"/>

</svg>