<svg xmlns="http://www.w3.org/2000/svg" xmlns:xlink="http://www.w3.org/1999/xlink" width="36" height="28" viewBox="0 0 36 28"><defs><path id="mr7wa" d="M540.214 885.46l-13.464 13.486 13.397 11.3c.087-.221.14-.462.14-.716v-23.567c0-.175-.03-.341-.073-.503"/><path id="mr7wb" d="M538.833 884.073a1.967 1.967 0 0 0-.502-.073h-31.37c-.174 0-.34.03-.501.073l16.186 16.214z"/><path id="mr7wc" d="M505.073 885.46a1.983 1.983 0 0 0-.073.503v23.567c0 .254.052.495.14.717l13.396-11.3z"/><path id="mr7wd" d="M523.335 902.368a.977.977 0 0 1-1.386 0l-2.024-2.028-13.195 11.13c.075.008.149.023.227.023h31.37c.078 0 .152-.015.228-.022L525.36 900.34z"/></defs><g><g opacity=".18" transform="translate(-505 -884)"><g opacity=".18"><use fill="#fff" xlink:href="#mr7wa"/></g><g opacity=".18"><use fill="#fff" xlink:href="#mr7wb"/></g><g opacity=".18"><use fill="#fff" xlink:href="#mr7wc"/></g><g opacity=".18"><use fill="#fff" xlink:href="#mr7wd"/></g></g></g></svg>