<svg xmlns="http://www.w3.org/2000/svg" xmlns:xlink="http://www.w3.org/1999/xlink" width="40" height="40" viewBox="0 0 40 40"><defs><path id="vhgta" d="M161 2246.73c0-10.897 8.833-19.73 19.73-19.73 10.896 0 19.73 8.833 19.73 19.73s-8.834 19.73-19.73 19.73c-10.897 0-19.73-8.833-19.73-19.73z"/><path id="vhgtb" d="M174.715 2259.407c-.145-1.287-.275-3.26.057-4.666.3-1.269 1.936-8.084 1.936-8.084s-.494-.975-.494-2.415c0-2.262 1.33-3.95 2.986-3.95 1.408 0 2.089 1.041 2.089 2.29 0 1.396-.902 3.483-1.368 5.416-.389 1.62.825 2.94 2.445 2.94 2.933 0 5.188-3.049 5.188-7.449 0-3.894-2.84-6.617-6.894-6.617-4.696 0-7.453 3.471-7.453 7.058 0 1.399.546 2.898 1.228 3.713a.48.48 0 0 1 .115.466c-.125.514-.404 1.619-.459 1.844-.071.298-.239.362-.551.218-2.062-.946-3.35-3.915-3.35-6.301 0-5.131 3.782-9.843 10.905-9.843 5.725 0 10.175 4.02 10.175 9.394 0 5.606-3.586 10.117-8.565 10.117-1.672 0-3.245-.856-3.783-1.868 0 0-.827 3.106-1.028 3.867-.372 1.412-1.378 3.184-2.052 4.264-.32.36-1.074.122-1.127-.394"/></defs><g><g transform="translate(-161 -2227)"><use fill="#6c6dee" xlink:href="#vhgta"/></g><g transform="translate(-161 -2227)"><use fill="#fff" fill-opacity=".9" xlink:href="#vhgtb"/></g></g></svg>