<svg xmlns="http://www.w3.org/2000/svg" xmlns:xlink="http://www.w3.org/1999/xlink" width="26" height="26" viewBox="0 0 26 26"><defs><path id="8x52a" d="M1011.198 207.345c-4.502-.026-8.143-3.676-8.162-8.183a8.083 8.083 0 0 1 2.359-5.753 8.065 8.065 0 0 1 5.743-2.37c4.502.025 8.143 3.675 8.162 8.182a8.083 8.083 0 0 1-2.359 5.754 8.065 8.065 0 0 1-5.743 2.37zm8.206-2.114a10.076 10.076 0 0 0 1.95-6.003c-.024-5.633-4.58-10.195-10.213-10.228a10.095 10.095 0 0 0-10.14 10.155c.024 5.633 4.58 10.197 10.213 10.23 2.167.008 4.279-.683 6.02-1.972l.008-.006 2.49 2.49 4.622 4.626a1.535 1.535 0 1 0 2.169-2.171z"/></defs><g><g transform="translate(-1001 -189)"><use fill="#95e7d5" fill-opacity=".9" xlink:href="#8x52a"/></g></g></svg>