<?xml version="1.0" encoding="utf-8" ?>
<svg xmlns="http://www.w3.org/2000/svg" xmlns:xlink="http://www.w3.org/1999/xlink" width="35" height="33">
	<defs>
		<clipPath id="clip_0">
			<rect x="1" y="0.00030517578" width="33.935848" height="31.999702" clip-rule="evenodd"/>
		</clipPath>
	</defs>
	<g clip-path="url(#clip_0)">
		<path fill="rgb(22,23,51)" fill-opacity="0.90196079" stroke="none" transform="translate(0.999954 0.000305176)" d="M33.8309 12.069C33.5789 11.305 32.9079 10.748 32.1009 10.632L22.9729 9.325L18.8899 1.177C18.5289 0.456 17.7839 0 16.9679 0C16.1529 0 15.4079 0.456 15.0459 1.177L10.9629 9.325L1.83495 10.632C1.02795 10.748 0.356949 11.305 0.104949 12.069C-0.147051 12.833 0.0629494 13.672 0.646949 14.233L7.25195 20.576L5.69295 29.532C5.55495 30.323 5.88595 31.125 6.54495 31.596C6.91895 31.864 7.36095 32 7.80595 32C8.14595 32 8.48995 31.92 8.80295 31.757L16.9679 27.529L25.1329 31.757C25.4459 31.92 25.7889 32 26.1299 32C26.5749 32 27.0169 31.864 27.3909 31.596C28.0499 31.125 28.3809 30.323 28.2429 29.532L26.6839 20.576L33.2889 14.233C33.8729 13.672 34.0829 12.833 33.8309 12.069"/>
	</g>

</svg>