<svg xmlns="http://www.w3.org/2000/svg" xmlns:xlink="http://www.w3.org/1999/xlink" width="7" height="6" viewBox="0 0 7 6"><defs><path id="owlxa" d="M1044.79 1225.082a.391.391 0 0 0-.32-.247l-1.698-.226-.76-1.406a.404.404 0 0 0-.357-.203.404.404 0 0 0-.357.203l-.76 1.406-1.697.226a.391.391 0 0 0-.321.247.343.343 0 0 0 .1.374l1.228 1.094-.29 1.546a.35.35 0 0 0 .159.356.424.424 0 0 0 .42.028l1.518-.73 1.518.73a.427.427 0 0 0 .42-.028.35.35 0 0 0 .159-.356l-.29-1.546 1.228-1.094a.343.343 0 0 0 .1-.374"/></defs><g><g clip-path="url(#clip-54068F8C-B565-2057-04E0-C22B6BB8A42F)" transform="translate(-1038 -1223)"><use fill="#d4ddeb" xlink:href="#owlxa"/></g></g></svg>