<svg xmlns="http://www.w3.org/2000/svg" xmlns:xlink="http://www.w3.org/1999/xlink" width="6" height="6" viewBox="0 0 6 6"><defs><path id="t3vpa" d="M1014.981 1225.263a.384.384 0 0 0-.305-.27l-1.614-.245-.722-1.527a.378.378 0 0 0-.34-.221.378.378 0 0 0-.34.22l-.722 1.528-1.614.246a.384.384 0 0 0-.305.269.408.408 0 0 0 .095.406l1.168 1.189-.275 1.68a.404.404 0 0 0 .15.386.368.368 0 0 0 .4.03l1.443-.792 1.444.792a.364.364 0 0 0 .399-.03.404.404 0 0 0 .15-.387l-.275-1.679 1.168-1.19a.408.408 0 0 0 .095-.405"/></defs><g><g clip-path="url(#clip-B6E5746E-5F5B-444F-1128-E70A9BA9D30B)" transform="translate(-1009 -1223)"><use fill="#6c6dee" fill-opacity=".9" xlink:href="#t3vpa"/></g></g></svg>