<?xml version="1.0" encoding="utf-8" ?>
<svg xmlns="http://www.w3.org/2000/svg" xmlns:xlink="http://www.w3.org/1999/xlink" width="20" height="21">
	<defs>
		<clipPath id="clip_0">
			<rect x="-1185" y="-1563" width="1441" height="2968" clip-rule="evenodd"/>
		</clipPath>
	</defs>
	<g clip-path="url(#clip_0)">
		<path fill="rgb(108,109,238)" fill-opacity="0.90196079" stroke="none" transform="translate(1.81836 0)" d="M7.08573 0.396353C7.3399 0.144185 7.6956 0 8.06879 0C8.44198 0 8.79769 0.144185 9.05186 0.396353L15.776 6.41094C16.1418 6.77484 16.2393 7.30414 16.0261 7.75979C15.813 8.21544 15.3288 8.51068 14.7929 8.51068L11.4309 8.51068L11.4309 15.3766C11.4309 16.0664 10.8284 16.625 10.086 16.625L6.05156 16.625C5.30854 16.625 4.70673 16.0664 4.70673 15.3766L4.70673 8.51068L1.34467 8.51068C0.808757 8.51068 0.32462 8.21544 0.111465 7.75979C-0.10169 7.30414 -0.00418974 6.77484 0.361603 6.41094L7.08573 0.396353Z"/>
	</g>
	<defs>
		<clipPath id="clip_1">
			<rect x="-1185" y="-1563" width="1441" height="2968" clip-rule="evenodd"/>
		</clipPath>
	</defs>
	<g clip-path="url(#clip_1)">
		<path fill="rgb(108,109,238)" fill-opacity="0.90196079" stroke="none" transform="translate(0 14)" d="M18.6667 0C17.9307 0 17.3333 0.522667 17.3333 1.16667L17.3333 4.66667L2.66667 4.66667L2.66667 1.16667C2.66667 0.522667 2.06933 0 1.33333 0C0.597333 0 0 0.522667 0 1.16667L0 5.83333C0 6.47733 0.597333 7 1.33333 7L18.6667 7C19.4027 7 20 6.47733 20 5.83333L20 1.16667C20 0.522667 19.4027 0 18.6667 0"/>
	</g>

</svg>