<svg xmlns="http://www.w3.org/2000/svg" xmlns:xlink="http://www.w3.org/1999/xlink" width="32" height="36" viewBox="0 0 32 36"><defs><path id="hu94b" d="M298 1140v13a2 2 0 0 0 4 0v-13a2 2 0 0 0-4 0"/><path id="hu94c" d="M306 1140v13a2 2 0 0 0 4 0v-13a2 2 0 0 0-4 0"/><path id="hu94d" d="M314 1140v13a2 2 0 0 0 4 0v-13a2 2 0 0 0-4 0"/><path id="hu94e" d="M290 1140v13a2 2 0 0 0 4 0v-13a2 2 0 0 0-4 0"/><path id="hu94f" d="M290 1136h28a2 2 0 0 0 .895-3.79l-14-7a2.006 2.006 0 0 0-1.79 0l-14 7A2.001 2.001 0 0 0 290 1136"/><path id="hu94a" d="M288 1157h32v4h-32z"/><path id="hu94h" d="M318 1157h-28a2 2 0 0 0 0 4h28a2 2 0 0 0 0-4"/><clipPath id="hu94g"><use xlink:href="#hu94a"/></clipPath></defs><g><g transform="translate(-288 -1125)"><g><use fill="#fff" xlink:href="#hu94b"/></g><g><use fill="#fff" xlink:href="#hu94c"/></g><g><use fill="#fff" xlink:href="#hu94d"/></g><g><use fill="#fff" xlink:href="#hu94e"/></g><g><use fill="#fff" xlink:href="#hu94f"/></g><g><g/><g clip-path="url(#hu94g)"><use fill="#fff" xlink:href="#hu94h"/></g></g></g></g></svg>